<svg width="211" height="77" viewBox="0 0 211 77" fill="none" xmlns="http://www.w3.org/2000/svg">
<rect x="26.5" y="26.5" width="158" height="24" rx="12" stroke="black"/>
<g opacity="0.67">
<mask id="mask0_60_9054" style="mask-type:luminance" maskUnits="userSpaceOnUse" x="-50" y="-50" width="311" height="177">
<rect width="311" height="177" transform="translate(-50 -50)" fill="white"/>
<rect x="26" y="26" width="159" height="25" rx="12.5" fill="black"/>
</mask>
<g mask="url(#mask0_60_9054)">
<g filter="url(#filter0_f_60_9054)">
<path d="M26 40.5C26 33.5964 31.5964 28 38.5 28H172.5C179.404 28 185 33.5964 185 40.5C185 47.4036 179.404 53 172.5 53H38.5C31.5964 53 26 47.4036 26 40.5Z" fill="black" fill-opacity="0.04" style="mix-blend-mode:hard-light"/>
</g>
</g>
</g>
<path d="M26 38.5C26 31.5964 31.5964 26 38.5 26H172.5C179.404 26 185 31.5964 185 38.5C185 45.4036 179.404 51 172.5 51H38.5C31.5964 51 26 45.4036 26 38.5Z" fill="#333333" style="mix-blend-mode:color-dodge"/>
<path d="M26 38.5C26 31.5964 31.5964 26 38.5 26H172.5C179.404 26 185 31.5964 185 38.5C185 45.4036 179.404 51 172.5 51H38.5C31.5964 51 26 45.4036 26 38.5Z" fill="white" fill-opacity="0.5"/>
<path d="M26 38.5C26 31.5964 31.5964 26 38.5 26H172.5C179.404 26 185 31.5964 185 38.5C185 45.4036 179.404 51 172.5 51H38.5C31.5964 51 26 45.4036 26 38.5Z" fill="#EDE4E0" style="mix-blend-mode:plus-darker"/>
<rect x="26" y="26" width="159" height="25" rx="12.5" fill="black" fill-opacity="0.01"/>
<defs>
<filter id="filter0_f_60_9054" x="-14" y="-12" width="239" height="105" filterUnits="userSpaceOnUse" color-interpolation-filters="sRGB">
<feFlood flood-opacity="0" result="BackgroundImageFix"/>
<feBlend mode="normal" in="SourceGraphic" in2="BackgroundImageFix" result="shape"/>
<feGaussianBlur stdDeviation="10" result="effect1_foregroundBlur_60_9054"/>
</filter>
</defs>
</svg>
