<svg width="25" height="28" viewBox="0 0 25 28" fill="none" xmlns="http://www.w3.org/2000/svg">
<path d="M15.6769 5.83317C16.6943 6.0555 17.6294 6.6128 18.3624 7.43376C19.0954 8.25472 19.593 9.30198 19.7915 10.4415M15.6769 1.1665C17.7907 1.42951 19.7619 2.48971 21.2667 4.17301C22.7716 5.85632 23.7207 8.06268 23.9582 10.4298M22.9165 19.7398V23.2398C22.9177 23.5648 22.8582 23.8864 22.742 24.1841C22.6258 24.4818 22.4553 24.749 22.2416 24.9687C22.0278 25.1883 21.7754 25.3556 21.5006 25.4597C21.2258 25.5638 20.9346 25.6024 20.6457 25.5732C17.4403 25.1831 14.3613 23.9563 11.6561 21.9915C9.13923 20.2003 7.00539 17.8104 5.40608 14.9915C3.64564 11.9479 2.55008 8.48266 2.20816 4.8765C2.18213 4.55388 2.21636 4.22872 2.30868 3.92173C2.401 3.61474 2.54938 3.33264 2.74438 3.0934C2.93937 2.85415 3.17671 2.663 3.44128 2.53211C3.70585 2.40123 3.99185 2.33348 4.28108 2.33317H7.40608C7.91161 2.3276 8.40169 2.5281 8.785 2.89729C9.1683 3.26649 9.41866 3.77919 9.48941 4.33984C9.62131 5.45991 9.86592 6.55969 10.2186 7.61817C10.3587 8.03575 10.3891 8.48957 10.306 8.92586C10.2229 9.36216 10.0299 9.76263 9.74983 10.0798L8.42691 11.5615C9.90978 14.4823 12.0691 16.9007 14.6769 18.5615L15.9998 17.0798C16.283 16.7662 16.6406 16.55 17.0302 16.4569C17.4197 16.3639 17.8249 16.3979 18.1977 16.5548C19.1428 16.9498 20.1248 17.2238 21.1248 17.3715C21.6308 17.4515 22.093 17.7369 22.4233 18.1736C22.7536 18.6103 22.9292 19.1677 22.9165 19.7398Z" stroke="#2C2C2C" stroke-linecap="round" stroke-linejoin="round"/>
</svg>
